<?xml version="1.0" encoding="utf-8"?>
<!-- Generator: Adobe Illustrator 26.0.0, SVG Export Plug-In . SVG Version: 6.00 Build 0)  -->
<svg version="1.1" id="Capa_3" xmlns="http://www.w3.org/2000/svg" xmlns:xlink="http://www.w3.org/1999/xlink" x="0px" y="0px"
	 viewBox="0 0 16 16" style="enable-background:new 0 0 16 16;" xml:space="preserve">
<style type="text/css">
	.st0{fill:#E62055;}
</style>
<g>
	<path class="st0" d="M7.28,0.49C7.56,0.73,7.82,0.96,8.1,1.2c0.27-0.24,0.54-0.47,0.82-0.72c0.34,0.3,0.67,0.59,1.01,0.88
		c1.04,0.92,2.08,1.84,3.13,2.76c0.12,0.1,0.17,0.21,0.17,0.37c0,2.41,0,4.82,0,7.24c0,0.14-0.04,0.23-0.14,0.32
		c-1.35,1.18-2.69,2.37-4.03,3.56c-0.11,0.09-0.17,0.09-0.27-0.01c-0.19-0.18-0.4-0.35-0.59-0.53c-0.07-0.07-0.12-0.06-0.19,0
		c-0.2,0.18-0.4,0.35-0.6,0.54c-0.09,0.08-0.15,0.08-0.24,0c-1.04-0.92-2.07-1.84-3.11-2.75c-0.33-0.29-0.66-0.57-0.98-0.86
		c-0.06-0.05-0.11-0.15-0.11-0.23c-0.01-2.44,0-4.89,0-7.33c0-0.08,0.05-0.18,0.11-0.23C4.21,3.2,5.34,2.2,6.48,1.2
		C6.74,0.96,7.01,0.73,7.28,0.49z M8.09,14.92c0.04-0.03,0.07-0.04,0.09-0.07c1.07-0.95,2.15-1.9,3.22-2.84
		c0.11-0.09,0.15-0.19,0.15-0.33c0-2.4,0-4.8,0-7.2c0-0.13-0.04-0.21-0.13-0.29c-1.02-0.9-2.05-1.8-3.07-2.7
		C8.27,1.42,8.19,1.35,8.1,1.28C8.02,1.34,7.96,1.39,7.9,1.44C6.86,2.36,5.82,3.28,4.78,4.19C4.68,4.28,4.64,4.37,4.64,4.5
		c0,2.4,0,4.79,0,7.19c0,0.13,0.04,0.22,0.14,0.3c0.86,0.75,1.71,1.5,2.56,2.26C7.59,14.47,7.84,14.69,8.09,14.92z M8.06,14.96
		c-0.07-0.06-0.11-0.1-0.16-0.15C6.84,13.88,5.78,12.94,4.71,12c-0.09-0.08-0.13-0.16-0.13-0.28c0-2.42,0-4.84,0-7.27
		c0-0.11,0.03-0.19,0.12-0.26c1.08-0.95,2.16-1.9,3.24-2.85C7.98,1.32,8.03,1.3,8.1,1.27C7.79,1,7.54,0.78,7.28,0.55
		C7.21,0.61,7.15,0.66,7.1,0.71C5.78,1.87,4.47,3.03,3.15,4.19C3.04,4.28,3,4.37,3,4.52c0,2.4,0,4.79,0,7.19
		c0,0.12,0.03,0.2,0.12,0.28c1.21,1.07,2.42,2.14,3.63,3.2c0.18,0.15,0.35,0.31,0.53,0.46C7.55,15.41,7.79,15.19,8.06,14.96z
		 M8.92,15.64c0.05-0.04,0.09-0.08,0.13-0.11c1.32-1.17,2.64-2.34,3.97-3.5c0.12-0.11,0.18-0.21,0.17-0.38c-0.01-2.38,0-4.77,0-7.15
		c0-0.13-0.04-0.22-0.14-0.3C11.93,3.2,10.8,2.2,9.67,1.21c-0.25-0.22-0.5-0.44-0.75-0.66C8.65,0.78,8.4,1.01,8.14,1.24
		C8.2,1.29,8.23,1.32,8.27,1.36c1.07,0.94,2.13,1.88,3.2,2.82c0.09,0.08,0.13,0.16,0.13,0.29c0,2.43,0,4.85,0,7.28
		c0,0.11-0.04,0.19-0.12,0.26c-1.08,0.95-2.17,1.91-3.25,2.86c-0.03,0.03-0.05,0.06-0.09,0.1C8.41,15.19,8.65,15.41,8.92,15.64z"/>
	<path class="st0" d="M6.36,9.85c0-0.26-0.01-0.53,0-0.79c0.02-0.43,0.25-0.65,0.68-0.64c0.35,0,0.56,0.19,0.6,0.54
		c0.01,0.1,0.01,0.19,0.01,0.29c0,0.03-0.05,0.06-0.07,0.08C7.54,9.31,7.5,9.28,7.49,9.25C7.48,9.17,7.49,9.08,7.48,9
		C7.45,8.72,7.31,8.57,7.05,8.57c-0.31-0.01-0.5,0.12-0.51,0.41c-0.02,0.58-0.02,1.17,0,1.75c0.01,0.29,0.21,0.42,0.49,0.42
		c0.26-0.01,0.41-0.15,0.44-0.44c0.01-0.08,0-0.16,0.02-0.24c0.01-0.04,0.05-0.08,0.07-0.12c0.03,0.04,0.08,0.07,0.08,0.11
		c0,0.12,0,0.25-0.03,0.37c-0.06,0.31-0.26,0.45-0.61,0.45c-0.35,0-0.58-0.15-0.62-0.48c-0.04-0.31-0.04-0.63-0.05-0.95
		C6.35,9.85,6.35,9.85,6.36,9.85z"/>
	<path class="st0" d="M8.01,11.24c0.04-0.1,0.05-0.18,0.09-0.24c0.25-0.39,0.51-0.78,0.77-1.17c0.16-0.24,0.28-0.49,0.27-0.79
		C9.12,8.76,8.98,8.58,8.75,8.57C8.43,8.55,8.26,8.68,8.22,8.99c-0.01,0.05,0,0.11-0.01,0.16C8.19,9.18,8.14,9.21,8.11,9.23
		C8.09,9.2,8.05,9.18,8.04,9.14C7.99,8.78,8.23,8.47,8.57,8.43c0.41-0.05,0.67,0.15,0.72,0.55c0.03,0.26-0.03,0.5-0.16,0.72
		c-0.25,0.4-0.51,0.79-0.77,1.19C8.32,10.94,8.29,11,8.23,11.1c0.17,0,0.31,0,0.44,0c0.16,0,0.32,0,0.48,0
		c0.03,0,0.06,0.04,0.09,0.07c-0.03,0.02-0.06,0.07-0.09,0.07C8.79,11.24,8.42,11.24,8.01,11.24z"/>
	<path class="st0" d="M7.42,6.63c0-0.93,0-1.85,0-2.78c0.3,0,0.59,0,0.87,0c0.02,0,0.05,0.05,0.07,0.07
		C8.34,3.95,8.31,3.99,8.28,3.99C8.1,3.99,7.92,4,7.74,3.99c-0.11,0-0.16,0.03-0.15,0.14c0.01,0.28,0.01,0.57,0,0.85
		c0,0.11,0.04,0.14,0.14,0.14c0.12,0,0.24-0.01,0.35,0c0.04,0,0.08,0.04,0.12,0.06C8.17,5.21,8.13,5.24,8.08,5.24
		c-0.12,0.01-0.24,0.01-0.35,0c-0.09,0-0.14,0.02-0.14,0.13c0,0.34,0,0.68,0,1.02c0,0.09,0.04,0.12,0.13,0.12c0.18,0,0.37,0,0.55,0
		c0.04,0,0.07,0.04,0.11,0.06C8.34,6.59,8.3,6.63,8.26,6.63C7.99,6.64,7.72,6.63,7.42,6.63z"/>
	<path class="st0" d="M6.56,7.47c0.87,0,1.74,0,2.61,0c0,0.02,0.01,0.03,0.01,0.05C9.14,7.53,9.09,7.56,9.04,7.56
		c-0.77,0-1.53,0-2.3,0c-0.06,0-0.13-0.02-0.19-0.03C6.55,7.51,6.56,7.49,6.56,7.47z"/>
</g>
</svg>
