<?xml version="1.0" encoding="utf-8"?>
<svg width="48px" height="48px" viewBox="0 0 48 48" version="1.1" xmlns:xlink="http://www.w3.org/1999/xlink" xmlns="http://www.w3.org/2000/svg">
  <defs>
    <path d="M0 0L48 0L48 48L0 48L0 0Z" id="path_1" />
    <clipPath id="mask_1">
      <use xlink:href="#path_1" />
    </clipPath>
  </defs>
  <g id="External-Link-icon">
    <path d="M0 0L48 0L48 48L0 48L0 0Z" id="Background" fill="#FFFFFF" fill-opacity="0" fill-rule="evenodd" stroke="none" />
    <g clip-path="url(#mask_1)">
      <path d="M32.07 0C31.5413 0.04875 31.1513 0.52125 31.2 1.05C31.2488 1.57875 31.7213 1.96875 32.25 1.92L44.7 1.92L24.66 21.99C24.375 22.2225 24.2438 22.5937 24.3263 22.9537C24.4088 23.31 24.69 23.5912 25.0463 23.6737C25.4063 23.7562 25.7775 23.625 26.01 23.34L46.08 3.3L46.08 15.75C46.0763 16.095 46.2563 16.4175 46.5563 16.5938C46.8563 16.7662 47.2238 16.7662 47.5238 16.5938C47.8238 16.4175 48.0038 16.095 48 15.75L48 0L32.25 0C32.22 0 32.19 0 32.16 0C32.13 0 32.1 0 32.07 0L32.07 0ZM1.92 9.6C1.4175 9.6 0.90375 9.77625 0.54 10.14C0.17625 10.5038 5.72205e-08 11.0175 5.72205e-08 11.52L5.72205e-08 46.08C5.72205e-08 46.5825 0.17625 47.0962 0.54 47.46C0.90375 47.8237 1.4175 48 1.92 48L36.48 48C36.9825 48 37.4963 47.8237 37.86 47.46C38.2237 47.0962 38.4 46.5825 38.4 46.08L38.4 17.28C38.4037 16.935 38.2237 16.6125 37.9238 16.4363C37.6237 16.2638 37.2562 16.2638 36.9562 16.4363C36.6563 16.6125 36.4762 16.935 36.48 17.28L36.48 46.08L1.92 46.08L1.92 11.52L30.72 11.52C31.065 11.5238 31.3875 11.3438 31.5637 11.0438C31.7362 10.7438 31.7362 10.3763 31.5637 10.0763C31.3875 9.77625 31.065 9.59625 30.72 9.6L1.92 9.6Z" id="Shape" fill="#F43F5E" fill-rule="evenodd" stroke="none" />
    </g>
  </g>
</svg>